<svg width="121" height="45" viewBox="0 0 121 45" fill="none" xmlns="http://www.w3.org/2000/svg">
<path d="M21.3786 2.52366C20.6546 1.72727 19.7135 1.3291 18.5189 1.3291H0.600098V20.5511C0.600098 22.0353 1.03446 23.2299 1.83085 24.0987C2.66344 25.0398 3.74946 25.4742 5.12505 25.4742H6.60927V6.68662H22.4646V5.60063C22.4646 4.33364 22.1026 3.28385 21.3786 2.52366Z" fill="#17174B"/>
<path d="M17.2157 12.0803H9.0708V13.2387C9.0708 14.4695 9.46903 15.5193 10.193 16.2795C10.917 17.0759 11.8582 17.4741 13.0528 17.4741H21.1253V16.3157C21.1253 15.0849 20.7633 14.0351 20.0755 13.2749C19.3515 12.4785 18.3741 12.0803 17.2157 12.0803Z" fill="#17174B"/>
<path d="M31.5146 2.41518C30.7182 1.58259 29.7046 1.14819 28.4738 1.14819H26.2295V4.58716V4.62335C26.2295 4.69575 26.2295 4.76814 26.2295 4.84053V21.2028C26.2295 22.5422 26.6276 23.6281 27.3516 24.4245C28.148 25.2571 29.1617 25.6915 30.3924 25.6915H32.6368V5.67314C32.6368 4.33376 32.2386 3.24777 31.5146 2.41518Z" fill="#17174B"/>
<path d="M54.2839 13.4559L53.0169 15.0125L48.9263 20.1528L45.9217 23.9538C45.0529 25.1122 43.6412 25.8 42.1208 25.9086C42.0001 25.9327 41.8674 25.9448 41.7226 25.9448H36.1841L44.8358 15.0125L46.0304 13.4921L46.0666 13.4559L46.0304 13.4197L44.8358 11.8993L36.1841 0.967041H41.7226C41.8674 0.967041 42.0001 0.979099 42.1208 1.00323C43.6412 1.11183 45.0529 1.83583 45.9217 2.95802L48.9263 6.75898L53.0169 11.8993L54.2839 13.4559Z" fill="#1D94D1"/>
<path d="M64.4196 0.967041L55.9851 11.6459L52.0755 6.75898L51.8945 6.50555L54.6819 2.95802C55.5869 1.83583 56.9625 1.11183 58.4828 1.00323C58.6276 0.979099 58.7725 0.967041 58.9173 0.967041H64.4196Z" fill="#17174B"/>
<path d="M64.4196 25.9448H58.9173C58.7725 25.9448 58.6276 25.9327 58.4828 25.9086C56.9625 25.8 55.5869 25.1122 54.6819 23.9538L51.8945 20.4062L52.0755 20.1528L55.9851 15.2659L64.4196 25.9448Z" fill="#17174B"/>
<path d="M89.9408 2.4875C89.1806 1.65491 88.167 1.22052 86.8638 1.22052H74.4835L68.6191 1.18433V1.72732C68.6191 3.2839 69.0536 4.55089 69.9586 5.52828C70.8274 6.46947 72.022 6.94007 73.4699 6.94007H91.0991V5.78166C91.0991 4.40607 90.7009 3.32009 89.9408 2.4875Z" fill="#17174B"/>
<path d="M89.9408 11.8269C89.1806 10.9943 88.167 10.5599 86.8638 10.5599L68.6191 10.5237V11.0667C68.6191 12.6233 69.0536 13.8902 69.9586 14.8314C70.8274 15.8088 72.022 16.3156 73.4699 16.3156H91.0991V15.0848C91.0991 13.7816 90.7009 12.6594 89.9769 11.8269H89.9408Z" fill="#17174B"/>
<path d="M120.095 7.48312C119.443 5.99894 118.611 4.80435 117.525 3.86316C116.475 2.92197 115.208 2.23415 113.796 1.79976C112.384 1.36536 110.864 1.14819 109.271 1.14819H95.3706V4.36997V4.44235C95.3706 4.56301 95.3706 4.69574 95.3706 4.84053V20.4426C95.3706 22.0715 95.7326 23.3747 96.4204 24.2435C97.1444 25.1847 98.339 25.6915 100.004 25.6915H101.778V6.8677H109.09C110.755 6.8677 112.095 7.33831 113.145 8.2795C114.194 9.22069 114.701 10.7049 114.701 12.6596V13.9266C114.701 15.9538 114.194 17.438 113.145 18.4154C110.936 20.4788 107.57 19.8996 104.819 19.8996C104.626 19.8996 104.433 19.8996 104.24 19.8996V21.1304C104.24 22.4697 104.638 23.5557 105.398 24.3883C106.158 25.2571 107.208 25.6915 108.439 25.6915H110.031C111.552 25.6915 112.746 25.4381 114.086 25.0037C115.461 24.5693 116.656 23.8453 117.67 22.9041C118.719 21.963 119.516 20.7322 120.131 19.2842C120.71 17.8 121 16.0624 121 14.0714V12.8044C121 10.7773 120.674 8.96731 120.095 7.48312Z" fill="#17174B"/>
<path d="M89.9408 21.2027C89.1806 20.3339 88.167 19.8995 86.8638 19.8995L68.6191 19.8633V20.4063C68.6191 20.5993 68.6312 20.7924 68.6554 20.9855C68.7278 22.2886 69.1622 23.3746 69.9586 24.2072C70.5137 24.8106 71.1773 25.2329 71.9496 25.4742C72.4081 25.619 72.9149 25.6914 73.4699 25.6914H91.0991V24.4607C91.0991 23.1213 90.7009 22.0353 89.9408 21.2027Z" fill="#17174B"/>
<path d="M60.7277 44.1531H4.72682C2.44624 44.1531 0.600098 42.307 0.600098 40.0264V32.3521H56.6009C58.8814 32.3521 60.7277 34.1982 60.7277 36.4788V44.1531Z" fill="#1D94D1"/>
<path d="M74.3026 33.1848V33.764C74.1096 33.595 73.9043 33.4623 73.6872 33.3658C73.47 33.2692 73.2407 33.221 72.9994 33.221C72.5167 33.221 72.1547 33.3779 71.9134 33.6916C71.6479 33.9812 71.5152 34.3914 71.5152 34.9223C71.5152 35.4774 71.6479 35.8997 71.9134 36.1893C72.1547 36.4789 72.5167 36.6237 72.9994 36.6237C73.2407 36.6237 73.47 36.5875 73.6872 36.5151C73.9043 36.4186 74.1096 36.2859 74.3026 36.1169V36.6961C74.0854 36.8409 73.8682 36.9375 73.651 36.9857C73.4338 37.0581 73.2045 37.0943 72.9632 37.0943C72.3357 37.0943 71.841 36.9013 71.479 36.5151C71.117 36.129 70.936 35.5981 70.936 34.9223C70.936 34.2707 71.117 33.7519 71.479 33.3658C71.841 32.9797 72.3357 32.7866 72.9632 32.7866C73.2045 32.7866 73.4338 32.8107 73.651 32.859C73.8923 32.9314 74.1096 33.04 74.3026 33.1848ZM75.3886 35.7911V33.8726H75.8954V35.7549C75.8954 36.0687 75.9557 36.2979 76.0764 36.4427C76.1729 36.5875 76.3418 36.6599 76.5831 36.6599C76.8486 36.6599 77.0658 36.5755 77.2347 36.4066C77.4037 36.2135 77.4881 35.9722 77.4881 35.6826V33.8726H77.995V37.0219H77.4881V36.5513C77.3674 36.7444 77.2227 36.8771 77.0537 36.9495C76.8848 37.0461 76.6918 37.0943 76.4746 37.0943C76.1126 37.0943 75.835 36.9857 75.642 36.7686C75.4731 36.5514 75.3886 36.2255 75.3886 35.7911ZM79.3343 33.0038H79.8411V33.8726H80.9271V34.307H79.8411V35.9721C79.8411 36.2376 79.8773 36.4065 79.9497 36.4789C80.0221 36.5513 80.1669 36.5876 80.3841 36.5876H80.9271V37.0219H80.3841C79.9979 37.0219 79.7205 36.9495 79.5516 36.8047C79.4068 36.6599 79.3343 36.3824 79.3343 35.9721V34.307H78.9723V33.8726H79.3343V33.0038ZM81.8683 33.0038H82.3751V33.9088H83.461V34.307H82.3751V36.0083C82.3751 36.2738 82.4113 36.4427 82.4837 36.5151C82.5561 36.5875 82.7009 36.6237 82.918 36.6237H83.461V37.0581H82.918C82.5078 37.0581 82.2303 36.9737 82.0855 36.8047C81.9407 36.6599 81.8683 36.3945 81.8683 36.0083V34.307H81.5063V33.9088H81.8683V33.0038ZM84.4023 37.0219V33.9088H84.909V37.0219H84.4023ZM84.4023 33.3296V32.678H84.9453V33.3296H84.4023ZM88.8548 35.1396V37.0219H88.348V35.1396C88.348 34.85 88.2877 34.6328 88.167 34.488C88.0705 34.3432 87.9016 34.2708 87.6602 34.2708C87.3706 34.2708 87.1534 34.3552 87.0086 34.5241C86.8397 34.7172 86.7552 34.9585 86.7552 35.2481V37.0219H86.2485V33.9088H86.7552V34.3793C86.8759 34.1863 87.0207 34.0415 87.1896 33.945C87.3586 33.8726 87.5517 33.8363 87.7688 33.8363C88.1308 33.8363 88.4084 33.945 88.6015 34.1622C88.7704 34.3794 88.8548 34.7052 88.8548 35.1396ZM92.2576 35.4291C92.2576 35.043 92.1731 34.7534 92.0042 34.5603C91.8594 34.3431 91.6422 34.2346 91.3526 34.2346C91.0871 34.2346 90.8699 34.3431 90.701 34.5603C90.5562 34.7534 90.4838 35.043 90.4838 35.4291C90.4838 35.7911 90.5562 36.0807 90.701 36.2979C90.8699 36.491 91.0871 36.5876 91.3526 36.5876C91.6422 36.5876 91.8594 36.491 92.0042 36.2979C92.1731 36.0807 92.2576 35.7911 92.2576 35.4291ZM92.7644 33.9088V36.6237C92.7644 37.1547 92.6437 37.5528 92.4024 37.8183C92.1611 38.0838 91.7991 38.2165 91.3164 38.2165C91.1234 38.2165 90.9544 38.2044 90.8096 38.1803C90.6406 38.1562 90.4838 38.1079 90.339 38.0355V37.5649C90.4838 37.6373 90.6286 37.6977 90.7734 37.7459C90.9182 37.7701 91.075 37.7821 91.244 37.7821C91.5818 37.7821 91.8353 37.6977 92.0042 37.5287C92.1731 37.3598 92.2576 37.0943 92.2576 36.7323V36.4789C92.1369 36.672 91.9921 36.8047 91.8232 36.8771C91.6543 36.9737 91.4612 37.0219 91.244 37.0219C90.8578 37.0219 90.5442 36.8771 90.3028 36.5876C90.0615 36.298 89.9408 35.9118 89.9408 35.4291C89.9408 34.9465 90.0615 34.5604 90.3028 34.2708C90.5442 33.9812 90.8578 33.8363 91.244 33.8363C91.4612 33.8363 91.6543 33.8726 91.8232 33.945C91.9921 34.0415 92.1369 34.1863 92.2576 34.3793V33.9088H92.7644ZM95.9499 35.6826V35.212H97.4341V35.6826H95.9499ZM100.692 37.0219V32.859H103.335V33.3296H101.271V34.5603H103.262V35.031H101.271V36.5513H103.407V37.0219H100.692ZM106.629 34.3793V32.678H107.136V37.0219H106.629V36.5513C106.508 36.7444 106.375 36.8892 106.231 36.9857C106.062 37.0581 105.857 37.0943 105.615 37.0943C105.229 37.0943 104.927 36.9495 104.71 36.6599C104.469 36.3462 104.348 35.948 104.348 35.4653C104.348 34.9827 104.469 34.5845 104.71 34.2708C104.927 33.9812 105.229 33.8363 105.615 33.8363C105.857 33.8363 106.062 33.8726 106.231 33.945C106.375 34.0415 106.508 34.1863 106.629 34.3793ZM104.855 35.4653C104.855 35.8515 104.939 36.1531 105.108 36.3703C105.253 36.5634 105.47 36.6599 105.76 36.6599C106.025 36.6599 106.231 36.5634 106.375 36.3703C106.544 36.1531 106.629 35.8515 106.629 35.4653C106.629 35.0792 106.544 34.7775 106.375 34.5603C106.231 34.3431 106.025 34.2346 105.76 34.2346C105.47 34.2346 105.253 34.3431 105.108 34.5603C104.939 34.7775 104.855 35.0792 104.855 35.4653ZM110.538 35.4291C110.538 35.043 110.466 34.7534 110.321 34.5603C110.152 34.3431 109.935 34.2346 109.67 34.2346C109.404 34.2346 109.187 34.3431 109.018 34.5603C108.873 34.7534 108.801 35.043 108.801 35.4291C108.801 35.7911 108.873 36.0807 109.018 36.2979C109.187 36.491 109.404 36.5876 109.67 36.5876C109.935 36.5876 110.152 36.491 110.321 36.2979C110.466 36.0807 110.538 35.7911 110.538 35.4291ZM111.045 33.9088V36.6237C111.045 37.1547 110.937 37.5528 110.719 37.8183C110.478 38.0838 110.116 38.2165 109.633 38.2165C109.44 38.2165 109.259 38.2044 109.09 38.1803C108.946 38.1562 108.801 38.1079 108.656 38.0355V37.5649C108.801 37.6373 108.946 37.6977 109.09 37.7459C109.235 37.7701 109.38 37.7821 109.525 37.7821C109.863 37.7821 110.116 37.6977 110.285 37.5287C110.454 37.3598 110.538 37.0943 110.538 36.7323V36.4789C110.442 36.672 110.309 36.8047 110.14 36.8771C109.971 36.9737 109.766 37.0219 109.525 37.0219C109.163 37.0219 108.861 36.8771 108.62 36.5876C108.378 36.298 108.258 35.9118 108.258 35.4291C108.258 34.9465 108.378 34.5604 108.62 34.2708C108.861 33.9812 109.163 33.8363 109.525 33.8363C109.766 33.8363 109.971 33.8726 110.14 33.945C110.309 34.0415 110.442 34.1863 110.538 34.3793V33.9088H111.045ZM115.063 35.3206V35.5739H112.71C112.734 35.9359 112.843 36.2135 113.036 36.4066C113.229 36.5755 113.495 36.6599 113.833 36.6599C114.026 36.6599 114.219 36.6358 114.412 36.5876C114.605 36.5393 114.786 36.4669 114.955 36.3703V36.8771C114.762 36.9495 114.569 37.0099 114.376 37.0581C114.182 37.0823 113.989 37.0943 113.796 37.0943C113.29 37.0943 112.891 36.9495 112.602 36.6599C112.312 36.3703 112.167 35.9842 112.167 35.5016C112.167 34.9706 112.312 34.5604 112.602 34.2708C112.867 33.9812 113.241 33.8363 113.724 33.8363C114.134 33.8363 114.46 33.9691 114.701 34.2346C114.943 34.5 115.063 34.862 115.063 35.3206ZM112.747 35.1758H114.557C114.557 34.8862 114.484 34.6689 114.339 34.5241C114.17 34.3552 113.965 34.2708 113.724 34.2708C113.434 34.2708 113.205 34.3432 113.036 34.488C112.867 34.6569 112.771 34.8862 112.747 35.1758ZM72.384 39.8455H71.6962V43.0672H72.384C72.9632 43.0672 73.3855 42.9345 73.651 42.6691C73.9165 42.4277 74.0491 42.0175 74.0491 41.4383C74.0491 40.8832 73.9165 40.473 73.651 40.2075C73.3855 39.9662 72.9632 39.8455 72.384 39.8455ZM71.117 43.5379V39.3749H72.2754C73.0959 39.3749 73.6993 39.5438 74.0854 39.8817C74.4474 40.2196 74.6284 40.7384 74.6284 41.4383C74.6284 42.1623 74.4353 42.6932 74.0491 43.0311C73.6872 43.3689 73.0959 43.5379 72.2754 43.5379H71.117ZM75.5334 43.5379V40.4247H76.0401V43.5379H75.5334ZM75.5334 39.8455V39.1939H76.0401V39.8455H75.5334ZM79.1896 41.9451C79.1896 41.5589 79.105 41.2693 78.9361 41.0763C78.7913 40.8591 78.5862 40.7505 78.3207 40.7505C78.0311 40.7505 77.8139 40.8591 77.6691 41.0763C77.5002 41.2693 77.4157 41.5589 77.4157 41.9451C77.4157 42.3071 77.5002 42.5967 77.6691 42.8139C77.8139 43.0069 78.0311 43.1035 78.3207 43.1035C78.5862 43.1035 78.7913 43.0069 78.9361 42.8139C79.105 42.5967 79.1896 42.3071 79.1896 41.9451ZM79.6963 40.4247V43.1397C79.6963 43.6706 79.5757 44.0688 79.3343 44.3342C79.093 44.5997 78.731 44.7325 78.2483 44.7325C78.0794 44.7325 77.9105 44.7204 77.7416 44.6962C77.5726 44.6721 77.4158 44.6239 77.271 44.5515V44.0809C77.4158 44.1533 77.5605 44.2136 77.7053 44.2619C77.8743 44.286 78.0312 44.298 78.176 44.298C78.5138 44.298 78.7672 44.2136 78.9361 44.0447C79.105 43.8757 79.1896 43.6102 79.1896 43.2482V42.9949C79.0689 43.1879 78.9361 43.3207 78.7913 43.3931C78.6224 43.4896 78.4173 43.5379 78.176 43.5379C77.7898 43.5379 77.4761 43.3931 77.2347 43.1035C77.0175 42.8139 76.909 42.4277 76.909 41.9451C76.909 41.4624 77.0175 41.0763 77.2347 40.7867C77.4761 40.4971 77.7898 40.3523 78.176 40.3523C78.4173 40.3523 78.6224 40.3885 78.7913 40.4609C78.9361 40.5574 79.0689 40.7022 79.1896 40.8953V40.4247H79.6963ZM80.7461 43.5379V40.4247H81.2529V43.5379H80.7461ZM80.7461 39.8455V39.1939H81.2891V39.8455H80.7461ZM82.3027 39.5197H82.8457V40.4247H83.8955V40.8229H82.8457V42.5243C82.8457 42.7656 82.8698 42.9225 82.918 42.9949C82.9904 43.0673 83.1353 43.1035 83.3525 43.1035H83.8955V43.5379H83.3525C82.9664 43.5379 82.7009 43.4655 82.5561 43.3207C82.3871 43.1759 82.3027 42.9104 82.3027 42.5243V40.8229H81.9407V40.4247H82.3027V39.5197ZM86.5019 41.9451H85.995C85.5848 41.9451 85.2952 41.9933 85.1263 42.0899C84.9573 42.1864 84.8729 42.3553 84.8729 42.5967C84.8729 42.7656 84.9332 42.9104 85.0539 43.0311C85.1745 43.1276 85.3434 43.1759 85.5606 43.1759C85.8502 43.1759 86.0796 43.0793 86.2485 42.8862C86.4174 42.6691 86.5019 42.3915 86.5019 42.0537V41.9451ZM87.0086 41.7641V43.5379H86.5019V43.0672C86.3812 43.2603 86.2364 43.3931 86.0675 43.4655C85.8986 43.562 85.6813 43.6102 85.4159 43.6102C85.1021 43.6102 84.8487 43.5258 84.6556 43.3569C84.4626 43.1638 84.366 42.9225 84.366 42.6329C84.366 42.2709 84.4867 42.0054 84.728 41.8365C84.9694 41.6434 85.3193 41.5469 85.7779 41.5469H86.5019V41.5107C86.5019 41.2694 86.4174 41.0884 86.2485 40.9677C86.1037 40.8229 85.8865 40.7505 85.5969 40.7505C85.4279 40.7505 85.259 40.7746 85.09 40.8229C84.9211 40.8712 84.7522 40.9315 84.5833 41.0039V40.5333C84.7763 40.4609 84.9694 40.4126 85.1625 40.3885C85.3314 40.3402 85.5003 40.3161 85.6693 40.3161C86.1278 40.3161 86.4657 40.4368 86.6829 40.6781C86.9001 40.9194 87.0086 41.2814 87.0086 41.7641ZM88.0585 43.5379V39.1939H88.6015V43.5379H88.0585ZM93.9952 39.4835V40.0627C93.778 39.942 93.5729 39.8575 93.3798 39.8093C93.1867 39.761 93.0057 39.7369 92.8368 39.7369C92.5231 39.7369 92.2817 39.7972 92.1128 39.9179C91.9439 40.0386 91.8594 40.2075 91.8594 40.4247C91.8594 40.6178 91.9198 40.7625 92.0404 40.8591C92.137 40.9556 92.3421 41.028 92.6558 41.0763L93.0178 41.1487C93.4281 41.2211 93.7297 41.3659 93.9228 41.5831C94.14 41.7761 94.2485 42.0416 94.2485 42.3795C94.2485 42.7898 94.1038 43.0914 93.8142 43.2845C93.5487 43.5017 93.1505 43.6102 92.6196 43.6102C92.4265 43.6102 92.2214 43.5861 92.0042 43.5379C91.787 43.4896 91.5578 43.4293 91.3164 43.3569V42.7777C91.5336 42.8983 91.7629 42.9948 92.0042 43.0672C92.2214 43.1155 92.4265 43.1397 92.6196 43.1397C92.9574 43.1397 93.2109 43.0793 93.3798 42.9587C93.5487 42.838 93.6332 42.657 93.6332 42.4157C93.6332 42.2226 93.5728 42.0657 93.4522 41.9451C93.3315 41.8244 93.1264 41.74 92.8368 41.6917L92.5109 41.6193C92.0765 41.5227 91.7629 41.39 91.5698 41.2211C91.3767 41.0521 91.2802 40.7988 91.2802 40.4609C91.2802 40.0989 91.413 39.8093 91.6784 39.5921C91.9439 39.3749 92.3059 39.2663 92.7644 39.2663C92.9575 39.2663 93.1505 39.2904 93.3436 39.3387C93.5607 39.3628 93.778 39.4111 93.9952 39.4835ZM96.3119 40.7505C96.0223 40.7505 95.8052 40.8591 95.6604 41.0763C95.4914 41.2935 95.4069 41.5951 95.4069 41.9813C95.4069 42.3433 95.4914 42.6329 95.6604 42.8501C95.8052 43.0673 96.0223 43.1759 96.3119 43.1759C96.5774 43.1759 96.7946 43.0673 96.9635 42.8501C97.1324 42.6329 97.2169 42.3433 97.2169 41.9813C97.2169 41.5951 97.1324 41.2935 96.9635 41.0763C96.7946 40.8591 96.5774 40.7505 96.3119 40.7505ZM96.3119 40.3161C96.7463 40.3161 97.0963 40.4609 97.3617 40.7505C97.6272 41.0401 97.7599 41.4503 97.7599 41.9813C97.7599 42.4881 97.6272 42.8863 97.3617 43.1759C97.0963 43.4655 96.7463 43.6102 96.3119 43.6102C95.8534 43.6102 95.5035 43.4655 95.2621 43.1759C94.9967 42.8863 94.8639 42.4881 94.8639 41.9813C94.8639 41.4503 94.9967 41.0401 95.2621 40.7505C95.5035 40.4609 95.8534 40.3161 96.3119 40.3161ZM98.5925 43.5379V39.1939H99.0993V43.5379H98.5925ZM100.149 42.3071V40.3885H100.656V42.2709C100.656 42.5605 100.716 42.7897 100.837 42.9587C100.958 43.1035 101.127 43.1759 101.344 43.1759C101.633 43.1759 101.851 43.0793 101.995 42.8862C102.164 42.7173 102.249 42.476 102.249 42.1623V40.3885H102.755V43.5379H102.249V43.0672C102.128 43.2362 101.983 43.3689 101.814 43.4655C101.645 43.562 101.452 43.6102 101.235 43.6102C100.873 43.6102 100.608 43.5017 100.439 43.2845C100.246 43.0673 100.149 42.7415 100.149 42.3071ZM103.805 39.5197H104.348V40.3885H105.398V40.7867H104.348V42.4881C104.348 42.7535 104.384 42.9225 104.457 42.9949C104.505 43.0673 104.638 43.1035 104.855 43.1035H105.398V43.5379H104.855C104.469 43.5379 104.203 43.4655 104.059 43.3207C103.89 43.1759 103.805 42.8983 103.805 42.4881V40.7867H103.443V40.3885H103.805V39.5197ZM106.086 43.5379V40.4247H106.593V43.5379H106.086ZM106.086 39.8455V39.1939H106.593V39.8455H106.086ZM108.909 40.7867C108.62 40.7867 108.391 40.8953 108.222 41.1125C108.077 41.3297 108.004 41.6193 108.004 41.9813C108.004 42.3674 108.077 42.6691 108.222 42.8862C108.391 43.1034 108.62 43.2121 108.909 43.2121C109.175 43.2121 109.392 43.1034 109.561 42.8862C109.706 42.6691 109.778 42.3674 109.778 41.9813C109.778 41.6193 109.706 41.3297 109.561 41.1125C109.392 40.8953 109.175 40.7867 108.909 40.7867ZM108.909 40.3523C109.344 40.3523 109.694 40.4971 109.959 40.7867C110.201 41.0763 110.321 41.4745 110.321 41.9813C110.321 42.4881 110.201 42.8983 109.959 43.2121C109.694 43.5016 109.344 43.6465 108.909 43.6465C108.451 43.6465 108.089 43.5016 107.823 43.2121C107.582 42.8983 107.461 42.4881 107.461 41.9813C107.461 41.4745 107.582 41.0763 107.823 40.7867C108.089 40.4971 108.451 40.3523 108.909 40.3523ZM113.796 41.6555V43.5379H113.29V41.6917C113.29 41.378 113.229 41.1487 113.109 41.0039C112.988 40.8591 112.807 40.7867 112.566 40.7867C112.3 40.7867 112.083 40.8832 111.914 41.0763C111.769 41.2452 111.697 41.4865 111.697 41.8003V43.5379H111.154V40.4247H111.697V40.8953C111.817 40.7263 111.962 40.5936 112.131 40.4971C112.276 40.4006 112.469 40.3523 112.71 40.3523C113.048 40.3523 113.314 40.4609 113.507 40.6781C113.7 40.8953 113.796 41.2211 113.796 41.6555ZM116.801 40.4971V41.0039C116.656 40.9315 116.511 40.8712 116.367 40.8229C116.198 40.7988 116.029 40.7867 115.86 40.7867C115.618 40.7867 115.425 40.8229 115.281 40.8953C115.16 40.9677 115.1 41.0883 115.1 41.2573C115.1 41.3779 115.148 41.4745 115.244 41.5469C115.341 41.5951 115.522 41.6555 115.787 41.7279L115.968 41.7641C116.33 41.8365 116.584 41.9451 116.729 42.0899C116.897 42.2347 116.982 42.4398 116.982 42.7052C116.982 42.9948 116.861 43.2241 116.62 43.3931C116.403 43.562 116.089 43.6465 115.679 43.6465C115.51 43.6465 115.341 43.6223 115.172 43.574C114.979 43.5499 114.786 43.5016 114.593 43.4292V42.9225C114.786 43.019 114.967 43.0914 115.136 43.1397C115.329 43.1879 115.51 43.2121 115.679 43.2121C115.92 43.2121 116.113 43.1638 116.258 43.0672C116.379 42.9948 116.439 42.8863 116.439 42.7415C116.439 42.5967 116.391 42.4881 116.294 42.4157C116.198 42.3433 115.992 42.2709 115.679 42.1985L115.498 42.1623C115.184 42.0899 114.955 41.9813 114.81 41.8365C114.665 41.6917 114.593 41.4986 114.593 41.2573C114.593 40.9677 114.701 40.7384 114.919 40.5695C115.136 40.4247 115.437 40.3523 115.824 40.3523C115.992 40.3523 116.161 40.3644 116.33 40.3885C116.499 40.4126 116.656 40.4488 116.801 40.4971Z" fill="#1D94D1"/>
<path d="M65.5061 44.1531H64.6372V32.3521H65.5061V44.1531Z" fill="#1D94D1"/>
<path d="M13.5596 35.4651V36.2977C13.2458 36.1288 12.9442 36.0082 12.6546 35.9358C12.3891 35.8634 12.1237 35.8271 11.8582 35.8271C11.3997 35.8271 11.0497 35.9116 10.8084 36.0806C10.567 36.2736 10.4464 36.527 10.4464 36.8407C10.4464 37.1062 10.5308 37.3113 10.6998 37.4561C10.8687 37.5768 11.1704 37.6854 11.6047 37.7819L12.1116 37.8905C12.7391 38.0112 13.1976 38.2163 13.4872 38.5059C13.7768 38.7955 13.9216 39.1937 13.9216 39.7005C13.9216 40.2797 13.7165 40.7262 13.3062 41.0399C12.9201 41.3295 12.3409 41.4743 11.5686 41.4743C11.279 41.4743 10.9773 41.4501 10.6636 41.4019C10.3499 41.3295 10.012 41.233 9.65 41.1123V40.2435C9.98787 40.4366 10.3136 40.5814 10.6274 40.6779C10.9652 40.7744 11.279 40.8227 11.5686 40.8227C12.0513 40.8227 12.4133 40.7261 12.6546 40.5331C12.9201 40.34 13.0527 40.0746 13.0527 39.7367C13.0527 39.4471 12.9563 39.2178 12.7632 39.0489C12.5943 38.88 12.3046 38.7473 11.8944 38.6507L11.3876 38.5783C10.7601 38.4577 10.3137 38.2646 10.0482 37.9991C9.75864 37.7336 9.61377 37.3717 9.61377 36.9131C9.61377 36.3581 9.80687 35.9357 10.193 35.6461C10.5791 35.3324 11.098 35.1756 11.7496 35.1756C12.0392 35.1756 12.3409 35.1997 12.6546 35.248C12.9442 35.2962 13.2458 35.3686 13.5596 35.4651ZM17.7587 37.3114C17.3726 37.3114 17.0589 37.4682 16.8175 37.7819C16.5762 38.0957 16.4555 38.53 16.4555 39.0851C16.4555 39.6402 16.5762 40.0746 16.8175 40.3883C17.0589 40.7021 17.3726 40.8589 17.7587 40.8589C18.1689 40.8589 18.4948 40.7021 18.7361 40.3883C18.9533 40.0746 19.0619 39.6402 19.0619 39.0851C19.0619 38.5542 18.9533 38.1318 18.7361 37.8181C18.4948 37.4803 18.1689 37.3114 17.7587 37.3114ZM17.7587 36.6959C18.4103 36.6959 18.9292 36.9011 19.3153 37.3114C19.6773 37.7457 19.8583 38.337 19.8583 39.0851C19.8583 39.8332 19.6773 40.4245 19.3153 40.8589C18.9292 41.2692 18.4103 41.4743 17.7587 41.4743C17.1071 41.4743 16.6003 41.2692 16.2383 40.8589C15.8522 40.4245 15.6592 39.8332 15.6592 39.0851C15.6592 38.337 15.8522 37.7457 16.2383 37.3114C16.6003 36.9011 17.1071 36.6959 17.7587 36.6959ZM21.9579 41.3657V35.0308H22.6819V41.3657H21.9579ZM25.0348 39.5557V36.8046H25.7951V39.5195C25.7951 39.9539 25.8795 40.2797 26.0484 40.4969C26.2174 40.7141 26.4707 40.8227 26.8086 40.8227C27.2188 40.8227 27.5447 40.702 27.786 40.4607C28.0032 40.1952 28.1118 39.8332 28.1118 39.3747V36.8046H28.872V41.3657H28.1118V40.6779C27.9429 40.9434 27.7378 41.1485 27.4964 41.2933C27.2551 41.414 26.9775 41.4743 26.6638 41.4743C26.1329 41.4743 25.7347 41.3174 25.4692 41.0037C25.1796 40.6658 25.0348 40.1832 25.0348 39.5557ZM31.2611 35.5014H31.9851V36.8046H33.5417V37.3837H31.9851V39.8453C31.9851 40.2315 32.0455 40.4728 32.1661 40.5693C32.2627 40.69 32.4678 40.7503 32.7815 40.7503H33.5417V41.3657H32.7815C32.2023 41.3657 31.8042 41.2571 31.587 41.0399C31.3698 40.8227 31.2611 40.4245 31.2611 39.8453V37.3837H30.682V36.8046H31.2611V35.5014ZM35.3517 41.3657V36.8046H36.1119V41.3657H35.3517ZM35.3517 35.9719V35.0308H36.1119V35.9719H35.3517ZM40.2749 37.3114C39.8646 37.3114 39.5509 37.4682 39.3337 37.7819C39.0923 38.0957 38.9717 38.53 38.9717 39.0851C38.9717 39.616 39.0802 40.0505 39.2974 40.3883C39.5388 40.7021 39.8646 40.8589 40.2749 40.8589C40.661 40.8589 40.9747 40.6899 41.216 40.3521C41.4574 40.0384 41.578 39.616 41.578 39.0851C41.578 38.53 41.4574 38.0957 41.216 37.7819C40.9747 37.4682 40.661 37.3114 40.2749 37.3114ZM40.2749 36.6959C40.9265 36.6959 41.4333 36.9011 41.7953 37.3114C42.1814 37.7457 42.3744 38.337 42.3744 39.0851C42.3744 39.8332 42.1814 40.4245 41.7953 40.8589C41.4333 41.2692 40.9265 41.4743 40.2749 41.4743C39.6233 41.4743 39.1044 41.2692 38.7183 40.8589C38.3563 40.4245 38.1753 39.8332 38.1753 39.0851C38.1753 38.337 38.3563 37.7457 38.7183 37.3114C39.1044 36.9011 39.6233 36.6959 40.2749 36.6959ZM48.2388 38.6145V41.3657H47.4786V38.6145C47.4786 38.1801 47.3941 37.8664 47.2252 37.6734C47.0563 37.4562 46.8028 37.3475 46.465 37.3475C46.0788 37.3475 45.7652 37.4682 45.5238 37.7095C45.2825 37.975 45.1618 38.337 45.1618 38.7955V41.3657H44.4016V36.8046H45.1618V37.4924C45.3549 37.2269 45.572 37.0217 45.8134 36.8769C46.0547 36.7563 46.3322 36.6959 46.646 36.6959C47.1769 36.6959 47.5751 36.8528 47.8406 37.1665C48.106 37.5044 48.2388 37.9871 48.2388 38.6145ZM53.4878 36.9131V37.6371C53.2706 37.5164 53.0533 37.432 52.8361 37.3837C52.5948 37.3355 52.3535 37.3114 52.1122 37.3114C51.7502 37.3114 51.4726 37.3717 51.2795 37.4924C51.0865 37.5889 50.9899 37.7578 50.9899 37.9991C50.9899 38.168 51.0624 38.3008 51.2072 38.3973C51.3278 38.4939 51.5933 38.5904 52.0035 38.6869L52.2569 38.7593C52.7878 38.8559 53.1619 39.0127 53.3791 39.2299C53.6205 39.4471 53.7411 39.7367 53.7411 40.0987C53.7411 40.5331 53.5722 40.871 53.2343 41.1123C52.8964 41.3536 52.438 41.4743 51.8588 41.4743C51.5933 41.4743 51.3278 41.4501 51.0623 41.4019C50.7968 41.3536 50.5194 41.2812 50.2298 41.1847V40.4245C50.5194 40.5693 50.7968 40.6779 51.0623 40.7503C51.3278 40.8227 51.5933 40.8589 51.8588 40.8589C52.2208 40.8589 52.4862 40.7986 52.6551 40.6779C52.8482 40.5572 52.9448 40.3883 52.9448 40.1711C52.9448 39.9539 52.8844 39.7971 52.7638 39.7005C52.619 39.5799 52.3173 39.4712 51.8588 39.3747L51.6053 39.3023C51.1226 39.2058 50.7849 39.061 50.5918 38.8679C50.3746 38.6507 50.2659 38.3732 50.2659 38.0353C50.2659 37.601 50.4228 37.2631 50.7365 37.0217C51.0261 36.8045 51.4606 36.6959 52.0398 36.6959C52.3052 36.6959 52.5586 36.708 52.7999 36.7321C53.0412 36.7804 53.2706 36.8407 53.4878 36.9131Z" fill="white"/>
</svg>
